HIERARCHY
ROOT hip
{
  OFFSET 0 0 0
  CHANNELS 6 Xposition Yposition Zposition Zrotation Yrotation Xrotation
  JOINT abdomen
  {
    OFFSET 0 20.6881 -0.73152
    CHANNELS 3 Zrotation Xrotation Yrotation
    JOINT chest
    {
      OFFSET 0 11.7043 -0.48768
      CHANNELS 3 Zrotation Xrotation Yrotation
      JOINT neck
      {
        OFFSET 0 22.1894 -2.19456
        CHANNELS 3 Zrotation Xrotation Yrotation
        JOINT head
        {
          OFFSET -0.24384 7.07133 1.2192
          CHANNELS 3 Zrotation Xrotation Yrotation
          JOINT leftEye
          {
            OFFSET 4.14528 8.04674 8.04672
            CHANNELS 3 Zrotation Xrotation Yrotation
            End Site
            {
              OFFSET 1 0 0
            }
          }
          JOINT rightEye
          {
            OFFSET -3.6576 8.04674 8.04672
            CHANNELS 3 Zrotation Xrotation Yrotation
            End Site
            {
              OFFSET 1 0 0
            }
          }
        }
      }
      JOINT rCollar
      {
        OFFSET -2.68224 19.2634 -4.8768
        CHANNELS 3 Zrotation Xrotation Yrotation
        JOINT rShldr
        {
          OFFSET -8.77824 -1.95073 1.46304
          CHANNELS 3 Zrotation Xrotation Yrotation
          JOINT rForeArm
          {
            OFFSET -28.1742 -1.7115 0.48768
            CHANNELS 3 Zrotation Xrotation Yrotation
            JOINT rHand
            {
              OFFSET -22.5879 0.773209 7.07136
              CHANNELS 3 Zrotation Xrotation Yrotation
              JOINT rThumb1
              {
                OFFSET -1.2192 -0.487915 3.41376
                CHANNELS 3 Zrotation Xrotation Yrotation
                JOINT rThumb2
                {
                  OFFSET -3.37035 -0.52449 3.41376
                  CHANNELS 3 Zrotation Xrotation Yrotation
                  End Site
                  {
                    OFFSET -1.78271 -1.18214 1.43049
                  }
                }
              }
              JOINT rIndex1
              {
                OFFSET -7.75947 0.938293 5.60832
                CHANNELS 3 Zrotation Xrotation Yrotation
                JOINT rIndex2
                {
                  OFFSET -2.54057 -0.884171 1.56538
                  CHANNELS 3 Zrotation Xrotation Yrotation
                  End Site
                  {
                    OFFSET -1.62519 -0.234802 1.16502
                  }
                }
              }
              JOINT rMid1
              {
                OFFSET -8.24714 1.18213 3.41376
                CHANNELS 3 Zrotation Xrotation Yrotation
                JOINT rMid2
                {
                  OFFSET -3.10165 -0.590103 1.0647
                  CHANNELS 3 Zrotation Xrotation Yrotation
                  End Site
                  {
                    OFFSET -2.48547 -0.328903 0.83742
                  }
                }
              }
              JOINT rRing1
              {
                OFFSET -8.82822 0.546677 1.51678
                CHANNELS 3 Zrotation Xrotation Yrotation
                JOINT rRing2
                {
                  OFFSET -2.60934 -0.819778 -0.0198488
                  CHANNELS 3 Zrotation Xrotation Yrotation
                  End Site
                  {
                    OFFSET -2.33842 -0.294052 0.168128
                  }
                }
              }
              JOINT rPinky1
              {
                OFFSET -8.27202 -0.0477905 -0.4584
                CHANNELS 3 Zrotation Xrotation Yrotation
                JOINT rPinky2
                {
                  OFFSET -1.82734 -0.647385 -0.700984
                  CHANNELS 3 Zrotation Xrotation Yrotation
                  End Site
                  {
                    OFFSET -1.69225 -0.51767 -0.607171
                  }
                }
              }
            }
          }
        }
      }
      JOINT lCollar
      {
        OFFSET 2.68224 19.2634 -4.8768
        CHANNELS 3 Zrotation Xrotation Yrotation
        JOINT lShldr
        {
          OFFSET 8.77824 -1.95073 1.46304
          CHANNELS 3 Zrotation Xrotation Yrotation
          JOINT lForeArm
          {
            OFFSET 28.1742 -1.7115 0.48768
            CHANNELS 3 Zrotation Xrotation Yrotation
            JOINT lHand
            {
              OFFSET 22.5879 0.773209 7.07136
              CHANNELS 3 Zrotation Xrotation Yrotation
              JOINT lThumb1
              {
                OFFSET 1.2192 -0.487915 3.41376
                CHANNELS 3 Zrotation Xrotation Yrotation
                JOINT lThumb2
                {
                  OFFSET 3.37035 -0.52449 3.41376
                  CHANNELS 3 Zrotation Xrotation Yrotation
                  End Site
                  {
                    OFFSET 1.78271 -1.18214 1.43049
                  }
                }
              }
              JOINT lIndex1
              {
                OFFSET 7.75947 0.938293 5.60832
                CHANNELS 3 Zrotation Xrotation Yrotation
                JOINT lIndex2
                {
                  OFFSET 2.54057 -0.884171 1.56538
                  CHANNELS 3 Zrotation Xrotation Yrotation
                  End Site
                  {
                    OFFSET 1.62519 -0.234802 1.16502
                  }
                }
              }
              JOINT lMid1
              {
                OFFSET 8.24714 1.18213 3.41376
                CHANNELS 3 Zrotation Xrotation Yrotation
                JOINT lMid2
                {
                  OFFSET 3.10165 -0.590103 1.0647
                  CHANNELS 3 Zrotation Xrotation Yrotation
                  End Site
                  {
                    OFFSET 2.48547 -0.328903 0.83742
                  }
                }
              }
              JOINT lRing1
              {
                OFFSET 8.82822 0.546677 1.51678
                CHANNELS 3 Zrotation Xrotation Yrotation
                JOINT lRing2
                {
                  OFFSET 2.60934 -0.819778 -0.0198488
                  CHANNELS 3 Zrotation Xrotation Yrotation
                  End Site
                  {
                    OFFSET 2.33842 -0.294052 0.168128
                  }
                }
              }
              JOINT lPinky1
              {
                OFFSET 8.27202 -0.0477905 -0.4584
                CHANNELS 3 Zrotation Xrotation Yrotation
                JOINT lPinky2
                {
                  OFFSET 1.82734 -0.647385 -0.700984
                  CHANNELS 3 Zrotation Xrotation Yrotation
                  End Site
                  {
                    OFFSET 1.69225 -0.51767 -0.607171
                  }
                }
              }
            }
          }
        }
      }
    }
  }
  JOINT rButtock
  {
    OFFSET -8.77824 4.35084 1.2192
    CHANNELS 3 Zrotation Xrotation Yrotation
    JOINT rThigh
    {
      OFFSET 0 -1.70687 -2.19456
      CHANNELS 3 Zrotation Xrotation Yrotation
      JOINT rShin
      {
        OFFSET 0 -36.8199 0.73152
        CHANNELS 3 Zrotation Xrotation Yrotation
        JOINT rFoot
        {
          OFFSET 0.73152 -45.1104 -5.12064
          CHANNELS 3 Zrotation Xrotation Yrotation
          End Site
          {
            OFFSET -1.1221 -3.69964 12.103
          }
        }
      }
    }
  }
  JOINT lButtock
  {
    OFFSET 8.77824 4.35084 1.2192
    CHANNELS 3 Zrotation Xrotation Yrotation
    JOINT lThigh
    {
      OFFSET 0 -1.70687 -2.19456
      CHANNELS 3 Zrotation Xrotation Yrotation
      JOINT lShin
      {
        OFFSET 0 -36.8199 0.73152
        CHANNELS 3 Zrotation Xrotation Yrotation
        JOINT lFoot
        {
          OFFSET -0.73152 -45.1104 -5.12064
          CHANNELS 3 Zrotation Xrotation Yrotation
          End Site
          {
            OFFSET 1.1221 -3.69964 12.103
          }
        }
      }
    }
  }
}
MOTION
Frames:	4
Frame Time:	0.03333
0.04854610313439454 58.63993342098415 0.41899285867298114 -79.65746307373047 -0.6874974370002747 0.23089709877967834 -77.8302993774414 0.24540047347545624 36.13985061645508 71.30760192871094 -0.05850015580654144 15.226971626281738 -83.36856079101562 -0.04449569806456566 59.21856689453125 82.7734375 -0.3913730978965759 64.39039611816406 1.5999423265457153 0.01057190541177988 -20.358238220214844 12.228577613830566 0.12064898014068604 -29.103158950805664 2.046053647994995 0.08501070737838745 -13.643574714660645 90.05419158935547 -0.5726682543754578 -121.1201171875 -88.8639907836914 -0.4586959481239319 159.05494689941406 -58.03376007080078 -1.1491162776947021 -0.10096271336078644 -6.268012046813965 0.03302055224776268 22.003095626831055 -1.2425209283828735 -0.11864766478538513 18.279420852661133 -3.9554221630096436 0.09194067865610123 12.51218032836914 85.9735107421875 0.09145829826593399 24.961883544921875 72.06975555419922 -0.14717409014701843 10.044822692871094 81.15160369873047 0.03549201041460037 7.012868881225586 17.722139358520508 0.04883980751037598 3.3959710597991943 87.08344268798828 0.06543322652578354 28.25347137451172 -0.9595237970352173 -0.13498789072036743 -23.431346893310547 76.85784149169922 -0.024139702320098877 3.682513475418091 -3.9740805625915527 -0.11499282717704773 25.003936767578125 -89.20343017578125 -0.8903052806854248 -15.037156105041504 88.48767852783203 -0.1430555135011673 179.5318603515625 60.97947692871094 0.5481788516044617 -18.992034912109375 2.8303802013397217 0.05689697340130806 -58.76578140258789 32.40370178222656 -0.05840154364705086 23.065425872802734 -23.667810440063477 0.167692169547081 -1.6851009130477905 -85.86785125732422 -0.01916668377816677 64.64759826660156 2.229564666748047 -0.10551265627145767 10.545144081115723 -80.71543884277344 -0.1021810993552208 2.732534885406494 -18.264341354370117 -0.1155412569642067 40.280738830566406 -87.70054626464844 0.026762070134282112 19.78716278076172 -5.107017993927002 0.15077704191207886 -2.291985034942627 -81.93728637695312 -0.11994077265262604 40.570255279541016 -4.6950836181640625 -0.1359500288963318 23.337900161743164 -89.04259490966797 -0.45273950695991516 -12.637454986572266 -69.04978942871094 1.4182798862457275 8.21722412109375 -83.0932388305664 -0.26527076959609985 -43.410709381103516 5.080973148345947 0.09180477261543274 2.458956003189087 88.14856719970703 0.7040532827377319 -175.57337951660156 38.049503326416016 1.024497628211975 -0.0017876607598736882 80.82546997070312 0.14079681038856506 -37.6413688659668
-0.4223628366568684 62.3662592359005 -0.09151052765428705 -81.95254516601562 -2.3585877418518066 165.9649200439453 -80.72980499267578 -0.295681893825531 159.91464233398438 62.75772476196289 -0.31705814599990845 3.7538743019104004 -81.0340576171875 0.13179555535316467 -9.582707405090332 89.47445678710938 0.25054991245269775 1.508768081665039 -11.305989265441895 -0.41073983907699585 10.069056510925293 17.660600662231445 0.4243127107620239 30.375215530395508 -10.948452949523926 -0.10222791880369186 43.19326400756836 89.83155822753906 -0.41519588232040405 77.25238800048828 -89.00312805175781 -0.8308662176132202 58.28793716430664 -53.55377960205078 1.2155871391296387 6.141242027282715 9.136724472045898 -0.14967207610607147 4.237876892089844 23.4679012298584 0.15388178825378418 11.933542251586914 -26.97899055480957 -0.25378674268722534 -10.12857437133789 80.5343246459961 -0.16003453731536865 -5.1772260665893555 25.613332748413086 -0.10998360812664032 19.856834411621094 66.88677215576172 0.16025395691394806 6.0309929847717285 7.2558674812316895 0.07492484152317047 39.085853576660156 83.69741821289062 -0.22093090415000916 12.776895523071289 19.934494018554688 -0.0005169599317014217 18.619447708129883 71.0977554321289 -0.1659242957830429 29.107606887817383 -21.653423309326172 0.07030433416366577 -4.711831569671631 -90.34393310546875 0.9656734466552734 30.815061569213867 89.29873657226562 0.1988525241613388 -86.05284118652344 54.113529205322266 -1.4440642595291138 39.66267013549805 -8.048928260803223 0.16024327278137207 18.840198516845703 -9.078911781311035 0.1967754065990448 3.187501907348633 -1.7171568870544434 0.09667758643627167 47.77035903930664 -86.5616226196289 0.2323327660560608 -11.294891357421875 -9.056802749633789 -0.2243959903717041 18.08790397644043 -64.62551879882812 -0.19396856427192688 4.469287872314453 -4.528162002563477 0.09965208917856216 -33.727413177490234 -83.43415069580078 0.05137338116765022 5.234610080718994 7.666790008544922 -0.13477393984794617 13.451885223388672 -68.64936065673828 0.2618849277496338 -0.38311251997947693 1.195621371269226 -0.14051410555839539 -9.15493106842041 -87.37964630126953 -0.372357040643692 14.730513572692871 -39.43145751953125 1.6045485734939575 21.101524353027344 -76.43415832519531 0.4846232235431671 18.25364875793457 4.045702934265137 0.3618074357509613 40.641380310058594 88.50129699707031 0.5646722316741943 -46.93080139160156 36.12561798095703 0.5275994539260864 32.11349105834961 80.03169250488281 -0.08888598531484604 70.53843688964844
-1.5981885467327317 59.64449032335295 -0.09689020209006462 -1.3161622285842896 13.784783363342285 9.54870891571045 -6.700300693511963 15.177536010742188 3.902223825454712 5.9242448806762695 -11.352002143859863 1.8557850122451782 -6.476807594299316 15.086932182312012 -6.699574947357178 11.646286964416504 -23.79765510559082 -11.43331241607666 -0.9415037631988525 -0.6027686595916748 0.5746278762817383 -0.3861218988895416 0.8278027176856995 0.3230176866054535 0.38239148259162903 0.07994943857192993 0.6963030099868774 39.56313705444336 26.6270694732666 28.016822814941406 -22.077993392944336 -24.28881072998047 66.51596069335938 -1.0557339191436768 -4.140647888183594 0.10006127506494522 1.2133562564849854 1.1405314207077026 1.7057158946990967 1.1210829019546509 0.3294321894645691 0.705388069152832 -0.5230788588523865 0.10853748023509979 1.1541860103607178 6.475504398345947 5.285672187805176 1.2334188222885132 1.7317010164260864 -0.8626061677932739 -0.37894928455352783 3.467327833175659 1.6001560688018799 0.014926275238394737 0.7779024243354797 0.7402796149253845 1.6293762922286987 10.618324279785156 -0.5560533404350281 1.0846574306488037 0.9580538272857666 -0.403842955827713 0.5134664177894592 3.28694224357605 -1.9565849304199219 1.0417773723602295 -0.9883949756622314 -0.2826076149940491 1.1705065965652466 -62.644554138183594 51.04703903198242 -11.8430757522583 25.983469009399414 -26.88318634033203 -68.201904296875 1.7160505056381226 -26.496356964111328 3.4235095977783203 -0.5894646048545837 0.53653484582901 1.2315881252288818 0.44689056277275085 0.21793831884860992 0.0976526066660881 -0.021212058141827583 0.17236298322677612 0.508903443813324 -7.518373489379883 5.803818702697754 1.1693042516708374 0.20300458371639252 -0.8803586363792419 0.7134683132171631 -1.7321008443832397 -0.28563737869262695 1.072821021080017 -0.9597156047821045 -0.20803356170654297 0.5282064080238342 -10.11050033569336 0.563450813293457 1.0888469219207764 -0.05469490587711334 0.9844672679901123 1.2790589332580566 -1.995164394378662 -0.4213593006134033 0.7454273104667664 -0.5192555785179138 -0.26656782627105713 1.133162498474121 -34.66218948364258 -53.3426628112793 -27.487606048583984 -1.5657775402069092 70.96143341064453 4.266366004943848 -0.2695253789424896 -6.484297275543213 -1.2488934993743896 0.800373375415802 0.4366587996482849 0.4855629503726959 15.73768424987793 -28.294111251831055 11.172725677490234 -0.714687168598175 56.60575866699219 -0.003920502960681915 9.533341407775879 -15.863144874572754 20.3291015625
-2.962254590499264 59.15084523127945 -0.6533824793986451 2.929699182510376 29.365215301513672 4.1654253005981445 -12.508549690246582 15.97360897064209 4.118193626403809 7.747334003448486 -9.756295204162598 1.9318658113479614 -9.098461151123047 16.83725357055664 -11.49099349975586 13.424943923950195 -25.52322769165039 -21.717130661010742 -1.2493807077407837 -0.8005141019821167 1.943357229232788 0.46695613861083984 1.1778206825256348 1.742130160331726 -0.31498217582702637 -0.4496823251247406 2.074002265930176 35.1614990234375 14.555706977844238 36.65202331542969 -20.917171478271484 -17.404638290405273 56.04105758666992 -1.0886801481246948 9.554582595825195 2.745373010635376 1.1933305263519287 0.8682942390441895 1.8335689306259155 0.9301320314407349 0.1625271886587143 1.7047851085662842 -1.1531047821044922 -0.1565461903810501 1.4230276346206665 6.6705732345581055 5.389636516571045 1.8501842021942139 1.7440450191497803 -0.8813527822494507 0.717475175857544 4.593586444854736 1.2831438779830933 0.8936704397201538 1.3372645378112793 0.4011581838130951 2.5133285522460938 10.913270950317383 -0.6926366090774536 1.3764374256134033 1.113084077835083 -0.04922184348106384 1.9024509191513062 2.88918137550354 -2.4675023555755615 1.3867433071136475 -1.3592782020568848 -0.486836701631546 0.8426153063774109 -81.3365249633789 59.67486572265625 9.316268920898438 28.53709602355957 -31.4153995513916 -75.1188735961914 1.9322057962417603 -43.384368896484375 7.355774879455566 -1.5913231372833252 -0.511873722076416 1.8202297687530518 0.008067704737186432 0.2702043354511261 1.0059391260147095 -0.08951515704393387 -0.30649271607398987 0.7320429086685181 -6.82242488861084 6.621487140655518 0.9715394973754883 1.0201027393341064 -1.3555288314819336 1.2668508291244507 -2.3347737789154053 -1.095296025276184 0.8494773507118225 -0.5847364068031311 -0.279051274061203 1.614897608757019 -11.12032699584961 -0.49048346281051636 1.436835765838623 -0.29818615317344666 1.1242831945419312 1.252010703086853 -1.7729655504226685 0.06371571123600006 1.631365180015564 -0.9847097396850586 -0.7794246077537537 1.627898931503296 -57.876373291015625 -61.167152404785156 -49.29346466064453 -6.129716873168945 79.02546691894531 8.533440589904785 2.023536443710327 4.192089557647705 7.357839107513428 0.43462178111076355 1.0628129243850708 0.7820107936859131 6.542730808258057 -6.496715068817139 8.077399253845215 -0.4267784655094147 45.973934173583984 -0.3610960841178894 12.737337112426758 -18.049095153808594 31.67563247680664
